# xmcd CD database file
#
# Track frame offsets:
#	150
#	20145
#	36057
#	57208
#	79125
#	97684
#	113390
#	133399
#	151094
#
# Disc length: 2206 seconds
#
# Revision: 1
# Processed by: cddbd v1.5.2PL0 Copyright (c) Steve Scherf et al.
# Submitted via: CDex 1.51
#
DISCID=64089c09
DTITLE=梁詠琪 - 給自己的情歌
DYEAR=2006
DGENRE=Salsa
TTITLE0=梁詠琪 - 01. 原來愛情這麼傷
TTITLE1=梁詠琪 - 02. 搬家
TTITLE2=梁詠琪 - 03. 給自己的情歌
TTITLE3=梁詠琪 - 04. 不理時間的人
TTITLE4=梁詠琪 - 05. 失蹤
TTITLE5=梁詠琪 - 06. 過於透明的寂靜
TTITLE6=梁詠琪 - 07. 初心
TTITLE7=梁詠琪 - 08. 謝謝你這些日子
TTITLE8=梁詠琪 - 09. 白日夢
EXTD=YEAR: 2006
EXTT0=
EXTT1=
EXTT2=
EXTT3=
EXTT4=
EXTT5=
EXTT6=
EXTT7=
EXTT8=
PLAYORDER=
